# Blender 5.1.2
# www.blender.org
mtllib Aug bolt.mtl
o RenderMesh_18687757424
v -0.370644 -0.162755 0.012793
v -0.238175 -0.234327 0.027905
v -0.238175 -0.162755 0.012793
v -0.370644 -0.234327 0.027905
v -0.370644 -0.162755 0.012793
v -0.268689 -0.147341 0.079012
v -0.288781 -0.142774 0.098627
v -0.238175 -0.162755 0.012793
v -0.238175 -0.150688 0.064632
v -0.252904 -0.147341 0.079012
v -0.370644 -0.124161 0.178593
v -0.288781 -0.124161 0.178593
v -0.351393 -0.119786 0.197388
v -0.308032 -0.119786 0.197388
v -0.370644 -0.234327 0.027905
v -0.370644 -0.195733 0.193704
v -0.288781 -0.214347 0.113739
v -0.288781 -0.195733 0.193704
v -0.308032 -0.191358 0.212499
v -0.351393 -0.191358 0.212499
v -0.268689 -0.218913 0.094124
v -0.238175 -0.234327 0.027905
v -0.238175 -0.222260 0.079743
v -0.252904 -0.218913 0.094124
v -0.238175 -0.234327 0.027905
v -0.238175 -0.150688 0.064632
v -0.238175 -0.162755 0.012793
v -0.238175 -0.222260 0.079743
v -0.252904 -0.147341 0.079012
v -0.252904 -0.218913 0.094124
v -0.268689 -0.218913 0.094124
v -0.268689 -0.147341 0.079012
v -0.288781 -0.214347 0.113739
v -0.288781 -0.142774 0.098627
v -0.288781 -0.195733 0.193704
v -0.288781 -0.124161 0.178593
v -0.308032 -0.119786 0.197388
v -0.308032 -0.191358 0.212499
v -0.351393 -0.191358 0.212499
v -0.351393 -0.119786 0.197388
v -0.370644 -0.195733 0.193704
v -0.370644 -0.124161 0.178593
v -0.370644 -0.162755 0.012793
v -0.370644 -0.234327 0.027905
v 0.508051 -0.147611 -0.070924
v -0.383050 -0.147611 -0.070924
v -0.383050 -0.233359 -0.070924
v 0.508051 -0.233359 -0.070924
v -0.383050 -0.233328 -0.062928
v 0.508051 -0.147579 -0.062928
v 0.508051 -0.233328 -0.062928
v -0.383050 -0.147580 -0.062928
v 0.508051 -0.147611 0.013091
v 0.508051 -0.190488 0.033080
v -0.383050 -0.147611 0.013091
v -0.383050 -0.190488 0.033080
v 0.508051 -0.233359 0.019592
v -0.383050 -0.233359 0.019592
vn -0.0000 -0.2066 -0.9784
vn -0.0000 0.9740 -0.2267
vn -0.0000 -0.9740 0.2267
vn 1.0000 -0.0000 -0.0000
vn 0.9242 0.0789 0.3737
vn 0.3834 0.1908 0.9037
vn -0.3834 0.1908 0.9037
vn -0.9242 0.0789 0.3737
vn -1.0000 -0.0000 -0.0000
vn -0.0000 -0.0000 -1.0000
vn -0.0000 -0.0000 1.0000
vn -0.0000 0.4233 0.9060
vn -0.0000 0.4236 0.9059
vn -0.0000 0.0747 0.9972
vn -0.0000 -0.3001 0.9539
vt 0.000000 0.000000
vt 62.034698 -48.989700
vt 62.257500 -49.010101
vt 62.257500 -48.989700
vt 62.034698 -49.010101
vt 5.954110 -51.022701
vt 6.176890 -51.002300
vt 5.954110 -51.002300
vt 6.176890 -51.022701
vt 61.965302 -48.989700
vt 61.742500 -48.989700
vt 61.965302 -48.999901
vt 61.742500 -48.999901
vt 61.965302 -49.010101
vt 61.742500 -49.010101
s 1
usemtl 
f 1/1/1 3/1/1 2/1/1
f 2/1/1 4/1/1 1/1/1
f 5/1/2 7/1/2 6/1/2
f 6/1/2 8/1/2 5/1/2
f 9/1/2 8/1/2 6/1/2
f 6/1/2 10/1/2 9/1/2
f 7/1/2 5/1/2 11/1/2
f 12/1/2 7/1/2 11/1/2
f 11/1/2 13/1/2 12/1/2
f 13/1/2 14/1/2 12/1/2
f 15/1/3 17/1/3 16/1/3
f 16/1/3 17/1/3 18/1/3
f 18/1/3 19/1/3 16/1/3
f 19/1/3 20/1/3 16/1/3
f 21/1/3 17/1/3 15/1/3
f 21/1/3 15/1/3 22/1/3
f 22/1/3 23/1/3 21/1/3
f 23/1/3 24/1/3 21/1/3
f 25/1/4 27/1/4 26/1/5
f 26/1/5 28/1/5 25/1/4
f 28/1/5 26/1/5 29/1/6
f 29/1/6 30/1/6 28/1/5
f 29/1/6 31/1/6 30/1/6
f 31/1/6 29/1/6 32/1/6
f 33/1/5 31/1/6 32/1/6
f 32/1/6 34/1/5 33/1/5
f 35/1/5 33/1/5 34/1/5
f 34/1/5 36/1/5 35/1/5
f 35/1/5 36/1/5 37/1/6
f 37/1/6 38/1/6 35/1/5
f 38/1/6 37/1/6 39/1/7
f 39/1/7 37/1/6 40/1/7
f 41/1/8 39/1/7 40/1/7
f 41/1/8 40/1/7 42/1/8
f 43/1/9 41/1/8 42/1/8
f 41/1/8 43/1/9 44/1/9
usemtl Meshpart1Mtl.006
f 49/6/11 50/7/11 52/8/11
f 49/6/11 51/9/11 50/7/11
usemtl Meshpart2Mtl.005
f 45/2/10 47/3/10 46/4/10
f 47/3/10 45/2/10 48/5/10
f 53/10/12 55/11/13 54/12/14
f 56/13/14 54/12/14 55/11/13
f 54/12/14 56/13/14 57/14/15
f 58/15/15 57/14/15 56/13/14
