# Blender 5.1.2
# www.blender.org
mtllib Aug body.mtl
o Boneclaw_Aug_Body.002
v 0.149325 -0.023172 0.125222
v 0.318625 -0.129047 0.125222
v 0.193474 -0.193982 0.125222
v 0.725925 -0.193982 0.125222
v -0.023625 -0.125273 0.125222
v -0.614325 -0.023173 0.125222
v -0.261676 -0.126803 0.125222
v 0.149325 0.049988 0.156716
v 1.977124 0.049988 0.156716
v 1.977124 -0.023172 0.125222
v 1.201274 -0.326452 0.125222
v 1.590875 -0.586194 0.125222
v 1.895025 -0.586194 0.125222
v 1.892474 -0.641697 0.125222
v 1.884674 -0.696243 0.125222
v 1.536325 -0.696243 0.125222
v 1.536325 -0.641697 0.125222
v 0.763624 -0.305842 0.125222
v 1.176625 -0.414932 0.125222
v 1.867874 0.205833 0.062722
v 0.149325 0.205833 0.062722
v -0.315475 -0.183572 0.125222
v -0.521076 -0.128333 0.125222
v -0.403825 -0.250038 0.125222
v -0.614325 -0.129048 0.125222
v -0.315475 -0.248508 0.125222
v -0.187925 -0.580806 0.125222
v -0.093075 -0.578716 0.125222
v -0.069775 -0.638346 0.125222
v 0.043474 -0.577270 0.125222
v 0.316474 -0.638346 0.125222
v 0.095075 -0.520495 0.125222
v 0.316474 -0.567807 0.125222
v 0.202074 -0.247802 0.125222
v -0.023625 -0.247802 0.125222
v 0.193474 -0.193982 0.125222
v 0.193474 -0.193982 -0.125785
v 0.202074 -0.247802 0.125222
v 0.202074 -0.247802 -0.125785
v 0.316474 -0.567807 0.125222
v 0.316474 -0.567807 -0.125785
v 0.316474 -0.638346 0.125222
v 0.316474 -0.638346 -0.125785
v -0.315475 -0.183572 0.125222
v -0.261676 -0.126803 -0.125785
v -0.261676 -0.126803 0.125222
v -0.315475 -0.183572 -0.125785
v -0.315475 -0.248508 0.125222
v -0.315475 -0.248508 -0.125785
v -0.093075 -0.578716 0.125222
v -0.093075 -0.578716 -0.125785
v 0.149325 0.205833 0.062722
v 0.149325 0.205833 -0.062797
v 1.867874 0.205833 0.062722
v 1.867874 0.205833 -0.062797
v -0.093075 -0.578716 0.125222
v 0.043474 -0.577270 0.125222
v -0.093075 -0.578716 -0.125785
v 0.043474 -0.577270 -0.125785
v -0.187925 -0.580806 -0.125785
v -0.386426 -0.276012 -0.125785
v -0.187925 -0.580806 0.125222
v -0.403825 -0.250038 0.125222
v -0.403826 -0.250038 -0.125785
v -0.521076 -0.128333 0.125222
v -0.521076 -0.128333 -0.125785
v 0.043474 -0.577270 0.125222
v 0.095075 -0.520495 0.125222
v 0.043474 -0.577270 -0.125785
v 0.095075 -0.520495 -0.125785
v -0.023625 -0.247802 0.125222
v -0.023625 -0.247802 -0.125785
v -0.023625 -0.125273 0.125222
v -0.023625 -0.125273 -0.125785
v 1.536325 -0.641697 -0.125785
v 1.590875 -0.586194 -0.125785
v 1.590875 -0.586194 0.125222
v 1.536325 -0.641697 0.125222
v 1.536325 -0.696243 -0.125785
v 1.536325 -0.696243 0.125222
v 1.884674 -0.696243 0.125222
v 1.536325 -0.696243 -0.125785
v 1.536325 -0.696243 0.125222
v 1.884674 -0.696243 -0.125785
v -0.187925 -0.580806 -0.125785
v -0.187925 -0.580806 0.125222
v -0.069775 -0.638346 -0.125785
v -0.069775 -0.638346 0.125222
v 0.316474 -0.638346 -0.125785
v 0.316474 -0.638346 0.125222
v 0.763624 -0.305842 -0.125785
v 0.763624 -0.305842 0.125222
v 1.176625 -0.414932 -0.125785
v 1.176625 -0.414932 0.125222
v 1.201274 -0.326452 -0.125785
v 1.201274 -0.326452 0.125222
v 1.590875 -0.586194 -0.125785
v 1.590875 -0.586194 0.125222
v 1.867874 0.205833 -0.062797
v 0.149325 0.205833 -0.062797
v 0.149325 0.049988 -0.156791
v 1.977124 0.049988 -0.156791
v 0.149325 -0.023172 -0.125785
v 1.977124 -0.023172 -0.125785
v 0.725925 -0.193982 -0.125785
v 1.201274 -0.326452 -0.125785
v 1.590875 -0.586194 -0.125785
v 1.895025 -0.586194 -0.125785
v 1.892474 -0.641697 -0.125785
v 1.884674 -0.696243 -0.125785
v 1.536325 -0.696243 -0.125785
v 1.536325 -0.641697 -0.125785
v 0.763624 -0.305842 -0.125785
v 1.176625 -0.414932 -0.125785
v 0.318625 -0.129047 -0.125785
v 0.193474 -0.193982 -0.125785
v -0.023625 -0.125273 -0.125785
v -0.023625 -0.247802 -0.125785
v 0.202074 -0.247802 -0.125785
v 0.095075 -0.520495 -0.125785
v 0.316474 -0.567807 -0.125785
v 0.316474 -0.638346 -0.125785
v 0.043474 -0.577270 -0.125785
v -0.069775 -0.638346 -0.125785
v -0.093075 -0.578716 -0.125785
v -0.187925 -0.580806 -0.125785
v -0.315475 -0.248508 -0.125785
v -0.386426 -0.276012 -0.125785
v -0.403826 -0.250038 -0.125785
v -0.315475 -0.183572 -0.125785
v -0.521076 -0.128333 -0.125785
v -0.261676 -0.126803 -0.125785
v -0.614325 -0.023173 -0.125785
v -0.614325 -0.129048 -0.125785
v 0.763624 -0.305842 -0.125785
v 0.725925 -0.193982 -0.125785
v 0.725925 -0.193982 0.125222
v 0.763624 -0.305842 0.125222
v 0.193474 -0.193982 0.125222
v 0.318625 -0.129047 -0.125785
v 0.318625 -0.129047 0.125222
v 0.193474 -0.193982 -0.125785
v 0.725925 -0.193982 -0.125785
v 0.725925 -0.193982 0.125222
v -0.261676 -0.126803 -0.125785
v -0.261676 -0.126803 0.125222
v -0.023625 -0.125273 -0.125785
v -0.023625 -0.125273 0.125222
v 1.176625 -0.414932 0.125222
v 1.201274 -0.326452 -0.125785
v 1.201274 -0.326452 0.125222
v 1.176625 -0.414932 -0.125785
vn -0.0000 -0.0000 1.0000
vn -0.0000 -0.1343 0.9909
vn -0.0000 -0.0005 1.0000
vn -0.0000 -0.2123 0.9772
vn -0.0000 -0.0383 0.9993
vn -0.0000 0.0704 0.9975
vn -0.0000 0.0005 1.0000
vn -0.0000 0.5180 0.8554
vn -0.0000 0.5179 0.8555
vn 0.8928 -0.4506 -0.0000
vn 0.9678 0.2517 -0.0000
vn 0.9678 0.2516 -0.0000
vn 0.9849 0.1731 -0.0000
vn 0.9849 0.1732 -0.0000
vn 1.0000 -0.0000 -0.0000
vn 0.9289 -0.3702 -0.0000
vn 0.9289 -0.3703 -0.0000
vn 0.4027 -0.9154 -0.0000
vn 0.9564 0.2921 -0.0000
vn 0.9564 0.2920 -0.0000
vn 0.4661 0.8847 -0.0000
vn -0.0000 1.0000 -0.0000
vn -0.4088 0.9126 -0.0000
vn -0.6625 -0.7490 -0.0000
vn -0.6626 -0.7490 -0.0000
vn -0.8380 -0.5457 -0.0000
vn -0.7816 -0.6238 0.0001
vn -0.7816 -0.6237 -0.0000
vn -0.7190 -0.6950 -0.0000
vn -0.7189 -0.6951 -0.0000
vn -0.9862 0.1656 -0.0000
vn -0.4093 0.9124 -0.0000
vn -0.9787 -0.2052 -0.0000
vn -0.9788 -0.2051 -0.0000
vn -1.0000 -0.0000 -0.0000
vn -0.9262 0.3770 -0.0000
vn -0.7148 0.6993 -0.0000
vn -0.0000 -1.0000 -0.0000
vn 0.6543 -0.7563 -0.0000
vn -0.6622 -0.7493 -0.0000
vn -0.2203 -0.9754 -0.0000
vn -0.2518 -0.9678 -0.0000
vn -0.5512 -0.8344 -0.0000
vn -0.5510 -0.8345 -0.0000
vn -0.5511 -0.8345 -0.0000
vn -0.0000 0.5180 -0.8554
vn -0.0000 0.0709 -0.9975
vn -0.0000 0.5179 -0.8555
vn -0.0000 -0.0394 -0.9992
vn -0.0000 -0.1335 -0.9910
vn -0.0000 -0.2128 -0.9771
vn -0.0000 -0.0000 -1.0000
vn -0.0000 -0.0005 -1.0000
vn -0.0000 0.0005 -1.0000
vn -0.9463 -0.3232 -0.0000
vn -0.9463 -0.3233 -0.0000
vn 0.8929 -0.4502 -0.0000
vn 0.8930 -0.4501 -0.0000
vn 0.1582 -0.9874 -0.0000
vn 0.1580 -0.9874 -0.0000
vn -0.1574 -0.9875 -0.0000
vn 0.4023 -0.9155 -0.0000
vn 0.0079 -1.0000 -0.0000
vn 0.0078 -1.0000 -0.0000
vn 0.9633 -0.2684 -0.0000
vt 36.043201 -2.972730
vt 35.898998 -2.930020
vt 35.941299 -2.956490
vt 35.910000 -2.972730
vt 35.855801 -2.955550
vt 36.355999 -2.930020
vt 35.796299 -2.955930
vt 35.708099 -2.930020
vt 36.355999 -2.911740
vt 35.898998 -2.911740
vt 36.161999 -3.005850
vt 36.259399 -3.070780
vt 36.335400 -3.070780
vt 36.334801 -3.084660
vt 36.332802 -3.098290
vt 36.245800 -3.098290
vt 36.245800 -3.084660
vt 36.052601 -3.000690
vt 36.155800 -3.027970
vt 36.328701 -2.872770
vt 35.898998 -2.872770
vt 35.782799 -2.970120
vt 35.731400 -2.956320
vt 35.760700 -2.986740
vt 35.708099 -2.956490
vt 35.782799 -2.986360
vt 35.814701 -3.069430
vt 35.838402 -3.068910
vt 35.844200 -3.083820
vt 35.872501 -3.068550
vt 35.940800 -3.083820
vt 35.885502 -3.054360
vt 35.940800 -3.066180
vt 35.912201 -2.986180
vt 35.855801 -2.986180
vt 36.031399 -2.972730
vt 35.968601 -2.972730
vt 35.968601 -2.986180
vt 36.031399 -2.986180
vt 35.968601 -3.066180
vt 36.031399 -3.066180
vt 35.968601 -3.083820
vt 36.031399 -3.083820
vt 35.968601 -2.970120
vt 36.031399 -2.970120
vt 36.031399 -2.955930
vt 35.968601 -2.955930
vt 35.968601 -2.986360
vt 36.031399 -2.986360
vt 35.968601 -3.068910
vt 36.031399 -3.068910
vt 36.101002 -2.984320
vt 35.671299 -2.984320
vt 36.101002 -3.015680
vt 35.671299 -3.015680
vt 36.127499 -2.968640
vt 36.161598 -3.031360
vt 36.161598 -2.968640
vt 36.127499 -3.031360
vt 35.968601 -3.069430
vt 36.031399 -3.069430
vt 35.968601 -2.993230
vt 36.031399 -2.986740
vt 35.968601 -2.986740
vt 36.031399 -2.956320
vt 35.968601 -2.956320
vt 36.031399 -3.054360
vt 35.968601 -3.068550
vt 36.031399 -3.068550
vt 35.968601 -3.054360
vt 36.031399 -2.955550
vt 35.968601 -2.955550
vt 35.968601 -3.084660
vt 36.031399 -3.070780
vt 35.968601 -3.070780
vt 36.031399 -3.084660
vt 35.968601 -3.098290
vt 36.031399 -3.098290
vt 36.245800 -3.031360
vt 36.332802 -3.031360
vt 36.332802 -2.968640
vt 36.245800 -2.968640
vt 35.814701 -2.968640
vt 35.814701 -3.031360
vt 35.844200 -3.031360
vt 35.844200 -2.968640
vt 35.940800 -3.031360
vt 35.940800 -2.968640
vt 36.052601 -3.031360
vt 36.155800 -3.031360
vt 36.052601 -2.968640
vt 36.155800 -2.968640
vt 36.161999 -3.031360
vt 36.259399 -3.031360
vt 36.161999 -2.968640
vt 36.259399 -2.968640
vt 35.671299 -2.872770
vt 36.101002 -2.911740
vt 36.101002 -2.872770
vt 35.644001 -2.911740
vt 36.101002 -2.930020
vt 35.644001 -2.930020
vt 35.956799 -2.972730
vt 35.838001 -3.005850
vt 35.740601 -3.070780
vt 35.664600 -3.070780
vt 35.665199 -3.084660
vt 35.667198 -3.098290
vt 35.754200 -3.098290
vt 35.754200 -3.084660
vt 35.947399 -3.000690
vt 35.844200 -3.027970
vt 36.058701 -2.956490
vt 36.090000 -2.972730
vt 36.144199 -2.955550
vt 36.144199 -2.986180
vt 36.087799 -2.986180
vt 36.114498 -3.054360
vt 36.059200 -3.066180
vt 36.059200 -3.083820
vt 36.127499 -3.068550
vt 36.155800 -3.083820
vt 36.161598 -3.068910
vt 36.185299 -3.069430
vt 36.217201 -2.986360
vt 36.234901 -2.993230
vt 36.239300 -2.986740
vt 36.217201 -2.970120
vt 36.268600 -2.956320
vt 36.203701 -2.955930
vt 36.291901 -2.930020
vt 36.291901 -2.956490
vt 35.968601 -3.000690
vt 36.031399 -3.000690
vt 35.910000 -2.968640
vt 35.910000 -3.031360
vt 35.941299 -3.031360
vt 35.941299 -2.968640
vt 36.043201 -3.031360
vt 36.043201 -2.968640
vt 35.796299 -3.031360
vt 35.855801 -3.031360
vt 35.796299 -2.968640
vt 35.855801 -2.968640
vt 35.968601 -3.027970
vt 36.031399 -3.027970
vt 36.031399 -3.005850
vt 35.968601 -3.005850
s 1
usemtl Meshpart4Mtl.001
f 4/1/1 1/2/2 2/3/3
f 1/2/2 3/4/1 2/3/3
f 3/4/1 1/2/2 5/5/1
f 1/2/2 4/1/1 10/6/4
f 1/2/2 7/7/1 5/5/1
f 6/8/1 7/7/1 1/2/2
f 1/2/2 9/9/5 8/10/6
f 1/2/2 10/6/4 9/9/5
f 10/6/4 4/1/1 11/11/1
f 12/12/1 10/6/4 11/11/1
f 10/6/4 12/12/1 13/13/1
f 12/12/1 14/14/1 13/13/1
f 14/14/1 12/12/1 15/15/1
f 15/15/1 12/12/1 16/16/1
f 16/16/1 12/12/1 17/17/1
f 18/18/7 11/11/1 4/1/1
f 11/11/1 18/18/7 19/19/1
f 8/10/6 9/9/5 20/20/8
f 8/10/6 20/20/8 21/21/9
f 22/22/1 7/7/1 23/23/1
f 7/7/1 6/8/1 23/23/1
f 24/24/1 22/22/1 23/23/1
f 25/25/1 23/23/1 6/8/1
f 22/22/1 24/24/1 26/26/1
f 24/24/1 27/27/1 26/26/1
f 28/28/1 26/26/1 27/27/1
f 27/27/1 29/29/1 28/28/1
f 30/30/1 28/28/1 29/29/1
f 29/29/1 31/31/1 30/30/1
f 31/31/1 32/32/1 30/30/1
f 32/32/1 31/31/1 33/33/1
f 33/33/1 34/34/1 32/32/1
f 3/4/1 35/35/1 34/34/1
f 35/35/1 32/32/1 34/34/1
f 35/35/1 3/4/1 5/5/1
f 37/36/10 36/37/10 38/38/11
f 38/38/11 39/39/12 37/36/10
f 39/39/12 38/38/11 40/40/13
f 41/41/14 39/39/12 40/40/13
f 41/41/14 40/40/13 42/42/15
f 42/42/15 43/43/15 41/41/14
f 44/44/16 47/45/17 45/46/18
f 45/46/18 46/47/18 44/44/16
f 47/45/17 44/44/16 48/48/19
f 48/48/19 49/49/20 47/45/17
f 49/49/20 48/48/19 50/50/21
f 51/51/21 49/49/20 50/50/21
f 52/52/22 54/53/22 53/54/22
f 55/55/22 53/54/22 54/53/22
f 57/56/23 58/57/21 56/58/21
f 58/57/21 57/56/23 59/59/23
f 60/60/24 62/61/25 61/62/26
f 61/62/26 62/61/25 63/63/27
f 63/63/27 64/64/28 61/62/26
f 65/65/29 64/64/28 63/63/27
f 64/64/28 65/65/29 66/66/30
f 68/67/31 69/68/32 67/69/32
f 69/68/32 68/67/31 70/70/31
f 71/39/33 70/70/31 68/67/31
f 70/70/31 71/39/33 72/38/34
f 73/71/35 72/38/34 71/39/33
f 72/38/34 73/71/35 74/72/35
f 75/73/36 77/74/37 76/75/37
f 77/74/37 75/73/36 78/76/36
f 79/77/35 78/76/36 75/73/36
f 78/76/36 79/77/35 80/78/35
f 82/79/38 84/80/39 81/81/39
f 82/79/38 81/81/39 83/82/38
f 86/83/40 85/84/40 87/85/41
f 87/85/41 88/86/41 86/83/40
f 87/85/41 89/87/38 88/86/41
f 89/87/38 90/88/38 88/86/41
f 91/89/42 93/90/42 92/91/42
f 93/90/42 94/92/42 92/91/42
f 95/93/43 97/94/44 96/95/45
f 97/94/44 98/96/44 96/95/45
f 99/97/46 101/98/47 100/99/48
f 101/98/47 99/97/46 102/100/49
f 101/98/47 102/100/49 103/101/50
f 104/102/51 103/101/50 102/100/49
f 103/101/50 104/102/51 105/103/52
f 105/103/52 104/102/51 106/104/52
f 104/102/51 107/105/52 106/104/52
f 104/102/51 108/106/52 107/105/52
f 109/107/53 107/105/52 108/106/52
f 110/108/52 107/105/52 109/107/53
f 111/109/52 107/105/52 110/108/52
f 107/105/52 111/109/52 112/110/52
f 106/104/52 113/111/52 105/103/52
f 113/111/52 106/104/52 114/112/52
f 103/101/50 105/103/52 115/113/54
f 116/114/53 103/101/50 115/113/54
f 103/101/50 116/114/53 117/115/52
f 118/116/52 117/115/52 116/114/53
f 118/116/52 116/114/53 119/117/52
f 120/118/52 118/116/52 119/117/52
f 119/117/52 121/119/52 120/118/52
f 122/120/52 120/118/52 121/119/52
f 120/118/52 122/120/52 123/121/52
f 123/121/52 122/120/52 124/122/52
f 124/122/52 125/123/52 123/121/52
f 124/122/52 126/124/52 125/123/52
f 127/125/52 125/123/52 126/124/52
f 126/124/52 128/126/52 127/125/52
f 127/125/52 128/126/52 129/127/52
f 129/127/52 130/128/52 127/125/52
f 131/129/52 130/128/52 129/127/52
f 130/128/52 131/129/52 132/130/52
f 133/131/52 132/130/52 131/129/52
f 133/131/52 131/129/52 134/132/52
f 103/101/50 132/130/52 133/131/52
f 132/130/52 103/101/50 117/115/52
f 135/133/55 137/36/56 136/37/55
f 137/36/56 135/133/55 138/134/56
f 139/135/57 142/136/58 140/137/59
f 140/137/59 141/138/60 139/135/57
f 140/137/59 143/139/61 141/138/60
f 143/139/61 144/140/61 141/138/60
f 145/141/62 147/142/63 146/143/62
f 147/142/63 148/144/64 146/143/62
f 149/145/65 152/146/65 150/147/65
f 150/147/65 151/148/65 149/145/65
o RenderMesh_18687756555.001
v -0.602053 -0.179280 0.072620
v -0.638260 -0.400062 0.072620
v -0.737477 -0.179280 0.072620
v -0.574717 -0.210021 0.031727
v -0.597074 -0.400062 -0.016359
v -0.574717 -0.210021 -0.016359
v -0.597074 -0.400062 0.031727
v -0.612266 -0.529933 0.072620
v -0.571099 -0.529933 0.031727
v -0.571099 -0.659804 0.031727
v -0.571099 -0.529933 -0.016359
v -0.612236 -0.659804 0.072620
v -0.612227 -0.776688 0.072620
v -0.737311 -0.659804 0.072620
v -0.776213 -0.776688 0.072620
v -0.778895 -0.659804 0.031727
v -0.750387 -0.529933 0.072620
v -0.737456 -0.400062 0.072620
v -0.778895 -0.400062 0.031727
v -0.791882 -0.529933 0.031727
v -0.791882 -0.529933 -0.016359
v -0.778895 -0.659804 -0.016359
v -0.750387 -0.529933 -0.057252
v -0.737311 -0.659804 -0.057252
v -0.776213 -0.776688 -0.057252
v -0.817856 -0.776688 -0.016359
v -0.817856 -0.776688 0.031727
v -0.612227 -0.776688 -0.057252
v -0.612236 -0.659804 -0.057252
v -0.571099 -0.659804 -0.016359
v -0.571099 -0.776688 -0.016359
v -0.571099 -0.776688 0.031727
v -0.612266 -0.529933 -0.057252
v -0.638260 -0.400062 -0.057252
v -0.737477 -0.179280 -0.057252
v -0.737456 -0.400062 -0.057252
v -0.602053 -0.179280 -0.057252
v -0.778895 -0.400062 -0.016359
v -0.778895 -0.179280 -0.016359
v -0.778895 -0.179280 0.031727
v -0.776213 -0.776688 0.072620
v -0.612227 -0.776688 -0.057252
v -0.776213 -0.776688 -0.057252
v -0.817856 -0.776688 -0.016359
v -0.817856 -0.776688 0.031727
v -0.612227 -0.776688 0.072620
v -0.571099 -0.776688 -0.016359
v -0.571099 -0.776688 0.031727
v -0.737477 -0.179280 -0.057252
v -0.737477 -0.179280 0.072620
v -0.778895 -0.179280 0.031727
v -0.778895 -0.179280 -0.016359
v -0.602053 -0.179280 0.072620
v -0.602053 -0.179280 -0.057252
v -0.574717 -0.210021 -0.016359
v -0.574717 -0.210021 0.031727
vn 0.3553 0.0078 0.9347
vn 0.9084 -0.1181 0.4010
vn 0.3580 -0.0510 0.9323
vn -0.3797 -0.0000 0.9251
vn 0.9229 0.0315 0.3838
vn 0.9229 0.0315 -0.3838
vn 0.9084 -0.1181 -0.4010
vn 0.4003 0.0416 0.9154
vn 0.9227 0.0898 0.3749
vn 0.3813 -0.0000 0.9245
vn 0.9233 -0.0000 0.3841
vn 0.9227 0.0899 -0.3749
vn -0.3331 0.0338 0.9423
vn 0.3813 -0.0000 0.9244
vn -0.4361 0.1453 0.8881
vn -0.9085 0.1060 0.4043
vn -0.3995 -0.0001 0.9167
vn -0.3691 0.0179 0.9292
vn -0.9197 0.0462 0.3899
vn -0.9260 -0.0000 0.3776
vn -0.9260 -0.0000 -0.3776
vn -0.9085 0.1060 -0.4043
vn -0.3995 -0.0001 -0.9167
vn -0.3331 0.0338 -0.9423
vn -0.4361 0.1453 -0.8881
vn -0.8903 0.2968 0.3453
vn -0.8903 0.2968 -0.3453
vn 0.3813 -0.0000 -0.9244
vn 0.3813 -0.0000 -0.9245
vn 0.9233 -0.0000 -0.3840
vn 0.9233 -0.0000 0.3840
vn 0.4003 0.0416 -0.9154
vn 0.3553 0.0078 -0.9347
vn -0.3797 -0.0000 -0.9251
vn 0.3580 -0.0510 -0.9323
vn -0.3691 0.0179 -0.9292
vn -0.9197 0.0462 -0.3899
vn -0.9227 -0.0000 -0.3856
vn -0.9227 -0.0000 0.3856
vn -0.0000 -1.0000 -0.0000
vn -0.0000 1.0000 -0.0000
vn 0.2707 0.9627 -0.0000
vn 0.2708 0.9626 -0.0000
vn 0.7473 0.6645 -0.0000
vt 0.000000 0.000000
s 1
usemtl Meshpart4Mtl.001
f 154/149/66 156/149/67 153/149/68
f 153/149/68 155/149/69 154/149/66
f 154/149/66 159/149/70 156/149/67
f 156/149/67 159/149/70 157/149/71
f 157/149/71 158/149/72 156/149/67
f 159/149/70 154/149/66 160/149/73
f 160/149/73 161/149/74 159/149/70
f 157/149/71 159/149/70 161/149/74
f 164/149/75 162/149/76 161/149/74
f 162/149/76 163/149/77 161/149/74
f 161/149/74 163/149/77 157/149/71
f 161/149/74 160/149/73 164/149/75
f 164/149/75 166/149/78 165/149/79
f 165/149/79 162/149/76 164/149/75
f 166/149/78 164/149/75 160/149/73
f 166/149/78 167/149/80 165/149/79
f 167/149/80 166/149/78 168/149/81
f 169/149/82 168/149/81 166/149/78
f 160/149/73 169/149/82 166/149/78
f 169/149/82 160/149/73 154/149/66
f 154/149/66 170/149/83 169/149/82
f 169/149/82 170/149/83 171/149/84
f 171/149/84 172/149/85 169/149/82
f 168/149/81 169/149/82 172/149/85
f 171/149/84 173/149/86 172/149/85
f 172/149/85 173/149/86 174/149/87
f 172/149/85 174/149/87 168/149/81
f 175/149/88 176/149/89 174/149/87
f 174/149/87 173/149/86 175/149/88
f 177/149/90 174/149/87 176/149/89
f 179/149/91 168/149/81 174/149/87
f 174/149/87 177/149/90 178/149/92
f 174/149/87 178/149/92 179/149/91
f 168/149/81 179/149/91 167/149/80
f 180/149/93 177/149/90 176/149/89
f 176/149/89 181/149/94 180/149/93
f 180/149/93 181/149/94 182/149/95
f 182/149/95 183/149/95 180/149/93
f 182/149/95 162/149/76 183/149/95
f 184/149/96 183/149/95 162/149/76
f 162/149/76 165/149/79 184/149/96
f 163/149/77 182/149/95 181/149/94
f 162/149/76 182/149/95 163/149/77
f 185/149/97 181/149/94 176/149/89
f 181/149/94 185/149/97 163/149/77
f 185/149/97 186/149/98 157/149/71
f 186/149/98 185/149/97 175/149/88
f 176/149/89 175/149/88 185/149/97
f 157/149/71 163/149/77 185/149/97
f 187/149/99 189/149/100 186/149/98
f 186/149/98 188/149/101 187/149/99
f 175/149/88 188/149/101 186/149/98
f 186/149/98 189/149/100 158/149/72
f 158/149/72 157/149/71 186/149/98
f 187/149/99 188/149/101 190/149/102
f 190/149/102 188/149/101 175/149/88
f 190/149/102 191/149/103 187/149/99
f 190/149/102 171/149/84 191/149/103
f 171/149/84 190/149/102 173/149/86
f 175/149/88 173/149/86 190/149/102
f 192/149/104 191/149/103 171/149/84
f 171/149/84 155/149/69 192/149/104
f 155/149/69 171/149/84 170/149/83
f 155/149/69 170/149/83 154/149/66
f 198/149/105 193/149/105 194/149/105
f 193/149/105 195/149/105 194/149/105
f 193/149/105 196/149/105 195/149/105
f 193/149/105 197/149/105 196/149/105
f 194/149/105 199/149/105 198/149/105
f 199/149/105 200/149/105 198/149/105
f 202/149/106 205/149/107 201/149/106
f 201/149/106 203/149/106 202/149/106
f 201/149/106 204/149/106 203/149/106
f 205/149/107 206/149/108 201/149/106
f 205/149/107 207/149/109 206/149/108
f 205/149/107 208/149/109 207/149/109
