# Blender 5.1.2
# www.blender.org
mtllib aug mag2.mtl
o RenderMesh_18687756685
v 1.432293 -0.038007 0.093870
v 1.090728 0.053515 0.093870
v 1.090728 0.053515 -0.093226
v 1.432293 -0.038007 -0.093226
v 0.882259 -0.541065 0.111640
v 1.263619 -0.718896 0.111640
v 1.263619 -0.718896 -0.110995
v 0.882259 -0.541065 -0.110995
v 1.293256 -0.655337 -0.110995
v 1.263619 -0.718896 0.111640
v 1.293256 -0.655337 0.111640
v 1.263619 -0.718896 -0.110995
v 1.282578 -0.598769 0.093870
v 1.282578 -0.598769 -0.093226
v 1.395071 -0.312401 0.093870
v 1.395071 -0.312401 -0.093226
v 1.432293 -0.038007 0.093870
v 1.432293 -0.038007 -0.093226
v 0.882259 -0.541065 0.111640
v 0.882259 -0.541065 -0.110995
v 0.911896 -0.477506 0.111640
v 0.911896 -0.477506 -0.110995
v 0.962095 -0.449326 0.093870
v 0.962095 -0.449326 -0.093226
v 1.053507 -0.220880 -0.093226
v 1.053507 -0.220879 0.093870
v 1.090728 0.053515 -0.093226
v 1.090728 0.053515 0.093870
v 1.263619 -0.718896 0.111640
v 0.882259 -0.541065 0.111640
v 1.293256 -0.655337 0.111640
v 0.911896 -0.477506 0.111640
v 0.962095 -0.449326 0.093870
v 1.282578 -0.598769 0.093870
v 1.053507 -0.220879 0.093870
v 1.395071 -0.312401 0.093870
v 1.432293 -0.038007 0.093870
v 1.090728 0.053515 0.093870
v 0.882259 -0.541065 -0.110995
v 1.293256 -0.655337 -0.110995
v 0.911896 -0.477506 -0.110995
v 1.263619 -0.718896 -0.110995
v 0.962095 -0.449326 -0.093226
v 1.282578 -0.598769 -0.093226
v 1.053507 -0.220880 -0.093226
v 1.395071 -0.312401 -0.093226
v 1.432293 -0.038007 -0.093226
v 1.090728 0.053515 -0.093226
v 1.227720 -0.119194 0.097985
v 1.227720 -0.119194 -0.101102
v 1.258709 -0.127497 0.097985
v 1.258709 -0.127497 -0.101102
v 1.137398 -0.094992 0.097985
v 1.137398 -0.094992 -0.101102
v 1.168387 -0.103295 0.097985
v 1.168387 -0.103295 -0.101102
v 1.318041 -0.143395 0.097985
v 1.318041 -0.143395 -0.101102
v 1.349031 -0.151698 0.097985
v 1.349031 -0.151698 -0.101102
v 1.133595 -0.617690 0.097985
v 1.133595 -0.617690 -0.101102
v 1.104518 -0.604132 0.097985
v 1.104518 -0.604132 -0.101102
v 1.048847 -0.578172 0.097985
v 1.048847 -0.578172 -0.101102
v 1.019771 -0.564614 0.097985
v 1.019771 -0.564614 -0.101102
v 1.218342 -0.657209 0.097985
v 1.218342 -0.657209 -0.101102
v 1.189265 -0.643650 0.097985
v 1.189265 -0.643650 -0.101102
v 1.349031 -0.151698 0.097985
v 1.349031 -0.151698 -0.101102
v 1.317858 -0.403513 0.097985
v 1.317858 -0.403513 -0.101102
v 1.218342 -0.657209 0.097985
v 1.218342 -0.657209 -0.101102
v 1.137398 -0.094992 0.097985
v 1.106227 -0.346807 0.097985
v 1.106227 -0.346807 -0.101102
v 1.137398 -0.094992 -0.101102
v 1.019771 -0.564614 -0.101102
v 1.019771 -0.564614 0.097985
v 1.104518 -0.604132 0.097985
v 1.196548 -0.371008 0.097985
v 1.133595 -0.617690 0.097985
v 1.227538 -0.379312 0.097985
v 1.258709 -0.127497 0.097985
v 1.227720 -0.119194 0.097985
v 1.189265 -0.643650 0.097985
v 1.286870 -0.395210 0.097985
v 1.218342 -0.657209 0.097985
v 1.317858 -0.403513 0.097985
v 1.349031 -0.151698 0.097985
v 1.318041 -0.143395 0.097985
v 1.218342 -0.657209 -0.101102
v 1.286870 -0.395210 -0.101102
v 1.189265 -0.643650 -0.101102
v 1.317858 -0.403513 -0.101102
v 1.349031 -0.151698 -0.101102
v 1.318041 -0.143395 -0.101102
v 1.133595 -0.617690 -0.101102
v 1.196548 -0.371008 -0.101102
v 1.104518 -0.604132 -0.101102
v 1.227538 -0.379311 -0.101102
v 1.258709 -0.127497 -0.101102
v 1.227720 -0.119194 -0.101102
v 1.019771 -0.564614 0.097985
v 1.106227 -0.346807 0.097985
v 1.048847 -0.578172 0.097985
v 1.137216 -0.355110 0.097985
v 1.168387 -0.103295 0.097985
v 1.137398 -0.094992 0.097985
v 1.048847 -0.578172 -0.101102
v 1.106227 -0.346807 -0.101102
v 1.019771 -0.564614 -0.101102
v 1.137216 -0.355110 -0.101102
v 1.168387 -0.103295 -0.101102
v 1.137398 -0.094992 -0.101102
v 1.258709 -0.127497 0.097985
v 1.227538 -0.379311 -0.101102
v 1.227538 -0.379312 0.097985
v 1.258709 -0.127497 -0.101102
v 1.133595 -0.617690 -0.101102
v 1.133595 -0.617690 0.097985
v 1.227720 -0.119194 0.097985
v 1.196548 -0.371008 0.097985
v 1.196548 -0.371008 -0.101102
v 1.227720 -0.119194 -0.101102
v 1.104518 -0.604132 -0.101102
v 1.104518 -0.604132 0.097985
v 1.168387 -0.103295 -0.101102
v 1.137216 -0.355110 0.097985
v 1.168387 -0.103295 0.097985
v 1.137216 -0.355110 -0.101102
v 1.048847 -0.578172 0.097985
v 1.048847 -0.578172 -0.101102
v 1.318041 -0.143395 0.097985
v 1.286870 -0.395210 0.097985
v 1.286870 -0.395210 -0.101102
v 1.318041 -0.143395 -0.101102
v 1.189265 -0.643650 -0.101102
v 1.189265 -0.643650 0.097985
vn 0.2588 0.9659 -0.0000
vn -0.4226 -0.9063 -0.0000
vn 0.9920 -0.1263 -0.0000
vn 0.9063 -0.4226 -0.0000
vn 0.9983 -0.0587 -0.0000
vn 0.9697 -0.2444 -0.0000
vn 0.9909 -0.1344 -0.0000
vn -0.9063 0.4226 -0.0000
vn -0.7798 0.6261 -0.0000
vn -0.7797 0.6261 -0.0000
vn -0.7862 0.6179 -0.0000
vn -0.9690 0.2470 -0.0000
vn -0.9909 0.1344 -0.0000
vn -0.0000 -0.0000 1.0000
vn 0.0744 0.1597 0.9844
vn 0.0325 0.0696 0.9970
vn 0.1062 0.2277 0.9679
vn 0.0805 0.1726 0.9817
vn -0.0000 -0.0000 -1.0000
vn 0.0325 0.0696 -0.9970
vn 0.0744 0.1597 -0.9844
vn 0.1062 0.2277 -0.9679
vn 0.0805 0.1726 -0.9817
vn 0.9924 -0.1229 -0.0000
vn 0.9813 -0.1925 -0.0000
vn 0.9309 -0.3652 -0.0000
vn -0.9924 0.1228 -0.0000
vn -0.9812 0.1932 -0.0000
vn -0.9295 0.3689 -0.0000
vn 0.9924 -0.1228 -0.0000
vn 0.9812 -0.1928 -0.0000
vn 0.9304 -0.3666 -0.0000
vn -0.9812 0.1929 -0.0000
vn -0.9301 0.3672 -0.0000
vn 0.9812 -0.1931 -0.0000
vn 0.9297 -0.3683 -0.0000
vn -0.9813 0.1926 -0.0000
vn -0.9307 0.3657 -0.0000
vt 0.000000 0.000000
s 1
f 1/1/1 3/1/1 2/1/1
f 1/1/1 4/1/1 3/1/1
f 5/1/2 7/1/2 6/1/2
f 5/1/2 8/1/2 7/1/2
f 9/1/3 11/1/3 10/1/4
f 10/1/4 12/1/4 9/1/3
f 13/1/5 11/1/3 9/1/3
f 9/1/3 14/1/5 13/1/5
f 15/1/6 13/1/5 14/1/5
f 14/1/5 16/1/6 15/1/6
f 17/1/7 15/1/6 16/1/6
f 16/1/6 18/1/7 17/1/7
f 19/1/8 21/1/9 20/1/8
f 21/1/9 22/1/10 20/1/8
f 22/1/10 21/1/9 23/1/11
f 23/1/11 24/1/11 22/1/10
f 23/1/11 25/1/12 24/1/11
f 26/1/12 25/1/12 23/1/11
f 26/1/12 27/1/13 25/1/12
f 28/1/13 27/1/13 26/1/12
f 29/1/14 31/1/15 30/1/14
f 31/1/15 32/1/16 30/1/14
f 31/1/15 33/1/17 32/1/16
f 33/1/17 31/1/15 34/1/18
f 34/1/18 35/1/14 33/1/17
f 35/1/14 34/1/18 36/1/14
f 35/1/14 36/1/14 37/1/14
f 37/1/14 38/1/14 35/1/14
f 39/1/19 41/1/20 40/1/21
f 40/1/21 42/1/19 39/1/19
f 40/1/21 41/1/20 43/1/22
f 43/1/22 44/1/23 40/1/21
f 44/1/23 43/1/22 45/1/19
f 45/1/19 46/1/19 44/1/23
f 45/1/19 47/1/19 46/1/19
f 45/1/19 48/1/19 47/1/19
f 49/1/1 51/1/1 50/1/1
f 51/1/1 52/1/1 50/1/1
f 53/1/1 55/1/1 54/1/1
f 55/1/1 56/1/1 54/1/1
f 57/1/1 59/1/1 58/1/1
f 59/1/1 60/1/1 58/1/1
f 61/1/2 63/1/2 62/1/2
f 63/1/2 64/1/2 62/1/2
f 65/1/2 67/1/2 66/1/2
f 67/1/2 68/1/2 66/1/2
f 69/1/2 71/1/2 70/1/2
f 71/1/2 72/1/2 70/1/2
f 73/1/24 75/1/25 74/1/24
f 75/1/25 76/1/25 74/1/24
f 75/1/25 77/1/26 76/1/25
f 77/1/26 78/1/26 76/1/25
f 79/1/27 81/1/28 80/1/28
f 79/1/27 82/1/27 81/1/28
f 80/1/28 81/1/28 83/1/29
f 80/1/28 83/1/29 84/1/29
f 85/1/14 87/1/14 86/1/14
f 88/1/14 86/1/14 87/1/14
f 86/1/14 88/1/14 89/1/14
f 89/1/14 90/1/14 86/1/14
f 91/1/14 93/1/14 92/1/14
f 94/1/14 92/1/14 93/1/14
f 92/1/14 94/1/14 95/1/14
f 95/1/14 96/1/14 92/1/14
f 97/1/19 99/1/19 98/1/19
f 98/1/19 100/1/19 97/1/19
f 101/1/19 100/1/19 98/1/19
f 98/1/19 102/1/19 101/1/19
f 103/1/19 105/1/19 104/1/19
f 104/1/19 106/1/19 103/1/19
f 107/1/19 106/1/19 104/1/19
f 104/1/19 108/1/19 107/1/19
f 109/1/14 111/1/14 110/1/14
f 112/1/14 110/1/14 111/1/14
f 110/1/14 112/1/14 113/1/14
f 113/1/14 114/1/14 110/1/14
f 115/1/19 117/1/19 116/1/19
f 116/1/19 118/1/19 115/1/19
f 119/1/19 118/1/19 116/1/19
f 116/1/19 120/1/19 119/1/19
f 121/1/30 123/1/31 122/1/31
f 122/1/31 124/1/30 121/1/30
f 125/1/32 122/1/31 123/1/31
f 123/1/31 126/1/32 125/1/32
f 127/1/27 129/1/33 128/1/33
f 127/1/27 130/1/27 129/1/33
f 128/1/33 129/1/33 131/1/34
f 128/1/33 131/1/34 132/1/34
f 133/1/24 135/1/24 134/1/35
f 134/1/35 136/1/35 133/1/24
f 134/1/35 137/1/36 136/1/35
f 137/1/36 138/1/36 136/1/35
f 139/1/27 141/1/37 140/1/37
f 139/1/27 142/1/27 141/1/37
f 140/1/37 141/1/37 143/1/38
f 140/1/37 143/1/38 144/1/38
