# Blender 5.1.2
# www.blender.org
mtllib Aug bolt.mtl
o RenderMesh_18687757424
v -0.053144 0.016424 -0.087207
v 0.079325 -0.051740 -0.072095
v 0.079325 0.016424 -0.087207
v -0.053144 -0.051740 -0.072095
v -0.053144 0.016424 -0.087207
v 0.048811 0.031104 -0.020988
v 0.028719 0.035453 -0.001373
v 0.079325 0.016424 -0.087207
v 0.079325 0.027916 -0.035368
v 0.064596 0.031104 -0.020988
v -0.053144 0.053180 0.078593
v 0.028719 0.053180 0.078593
v -0.033893 0.057347 0.097388
v 0.009468 0.057347 0.097388
v -0.053144 -0.051740 -0.072095
v -0.053144 -0.014984 0.093704
v 0.028719 -0.032711 0.013739
v 0.028719 -0.014984 0.093704
v 0.009468 -0.010817 0.112499
v -0.033893 -0.010817 0.112499
v 0.048811 -0.037060 -0.005876
v 0.079325 -0.051740 -0.072095
v 0.079325 -0.040248 -0.020257
v 0.064596 -0.037060 -0.005876
v 0.079325 -0.051740 -0.072095
v 0.079325 0.027916 -0.035368
v 0.079325 0.016424 -0.087207
v 0.079325 -0.040248 -0.020257
v 0.064596 0.031104 -0.020988
v 0.064596 -0.037060 -0.005876
v 0.048811 -0.037060 -0.005876
v 0.048811 0.031104 -0.020988
v 0.028719 -0.032711 0.013739
v 0.028719 0.035453 -0.001373
v 0.028719 -0.014984 0.093704
v 0.028719 0.053180 0.078593
v 0.009468 0.057347 0.097388
v 0.009468 -0.010817 0.112499
v -0.033893 -0.010817 0.112499
v -0.033893 0.057347 0.097388
v -0.053144 -0.014984 0.093704
v -0.053144 0.053180 0.078593
v -0.053144 0.016424 -0.087207
v -0.053144 -0.051740 -0.072095
vn -0.0000 -0.2164 -0.9763
vn -0.0000 0.9763 -0.2164
vn -0.0000 0.9763 -0.2165
vn -0.0000 -0.9763 0.2164
vn -0.0000 -0.9763 0.2165
vn 1.0000 -0.0000 -0.0000
vn 0.9239 0.0828 0.3736
vn 0.3827 0.2000 0.9020
vn -0.3827 0.2000 0.9020
vn -0.9239 0.0828 0.3736
vn -1.0000 -0.0000 -0.0000
vt 0.000000 0.000000
s 1
f 1/1/1 3/1/1 2/1/1
f 2/1/1 4/1/1 1/1/1
f 5/1/2 7/1/2 6/1/2
f 6/1/2 8/1/2 5/1/2
f 9/1/2 8/1/2 6/1/2
f 6/1/2 10/1/2 9/1/2
f 7/1/2 5/1/2 11/1/2
f 12/1/2 7/1/2 11/1/2
f 11/1/2 13/1/3 12/1/2
f 13/1/3 14/1/3 12/1/2
f 15/1/4 17/1/4 16/1/4
f 16/1/4 17/1/4 18/1/4
f 18/1/4 19/1/5 16/1/4
f 19/1/5 20/1/5 16/1/4
f 21/1/4 17/1/4 15/1/4
f 21/1/4 15/1/4 22/1/4
f 22/1/4 23/1/4 21/1/4
f 23/1/4 24/1/4 21/1/4
f 25/1/6 27/1/6 26/1/7
f 26/1/7 28/1/7 25/1/6
f 28/1/7 26/1/7 29/1/8
f 29/1/8 30/1/8 28/1/7
f 29/1/8 31/1/8 30/1/8
f 31/1/8 29/1/8 32/1/8
f 33/1/7 31/1/8 32/1/8
f 32/1/8 34/1/7 33/1/7
f 35/1/7 33/1/7 34/1/7
f 34/1/7 36/1/7 35/1/7
f 35/1/7 36/1/7 37/1/8
f 37/1/8 38/1/8 35/1/7
f 38/1/8 37/1/8 39/1/9
f 39/1/9 37/1/8 40/1/9
f 41/1/10 39/1/9 40/1/9
f 41/1/10 40/1/9 42/1/10
f 43/1/11 41/1/10 42/1/10
f 41/1/10 43/1/11 44/1/11
